<svg id="Camada_1" data-name="Camada 1" xmlns="http://www.w3.org/2000/svg" viewBox="0 0 126.53 228.99">
  <style>
    .cls-1 {
      fill: currentColor;
    }
  </style>
  <polyline class="cls-1" points="120.51 6.34 106.23 6.34 106.23 20.62 70.47 20.62 70.47 6.34 56.19 6.34 56.19 20.62 20.43 20.62 20.43 6.34 6.03 6.34 6.03 34.9 120.51 34.9 120.51 6.34" />
  <g>
    <polyline class="cls-1" points="120.51 50.23 120.51 125.35 106.23 139.63 106.23 50.23 120.51 50.23" />
    <polyline class="cls-1" points="99.15 50.23 99.15 64.51 77.67 73.51 77.67 127.15 48.99 127.15 48.99 73.51 27.51 64.51 27.51 50.23 99.15 50.23" />
    <polyline class="cls-1" points="84.75 78.79 84.75 134.47 70.47 145.03 84.75 155.35 84.75 164.71 99.15 150.43 99.15 78.79 84.75 78.79" />
    <polyline class="cls-1" points="27.51 78.79 41.79 78.79 41.79 134.47 56.19 145.03 41.79 155.35 41.79 164.71 27.51 150.43 27.51 78.79" />
    <polyline class="cls-1" points="20.43 50.23 20.43 139.63 6.03 125.35 6.03 50.23 20.43 50.23" />
    <polyline class="cls-1" points="63.27 148.27 77.67 162.55 77.67 175.39 63.27 189.79 48.99 175.39 48.99 162.55 63.27 148.27" />
    <polyline class="cls-1" points="120.51 136.03 120.51 157.51 106.23 171.91 106.23 150.43 120.51 136.03" />
    <polyline class="cls-1" points="99.15 161.11 99.15 182.59 84.75 196.87 84.75 175.39 99.15 161.11" />
    <polyline class="cls-1" points="77.67 186.19 77.67 207.67 63.27 221.95 48.99 207.67 48.99 186.19 63.27 200.47 77.67 186.19" />
    <polyline class="cls-1" points="41.79 175.39 41.79 196.87 27.51 182.59 27.51 161.11 41.79 175.39" />
    <polyline class="cls-1" points="20.43 150.43 20.43 171.91 6.03 157.51 6.03 136.03 20.43 150.43" />
  </g>
</svg>
