<?xml version="1.0" encoding="UTF-8"?>
<svg id="Camada_1" xmlns="http://www.w3.org/2000/svg" viewBox="0 0 408.88 215.12">
  <defs>
    <style>
      .cls-1 {
        fill: currentColor;
      }
    </style>
  </defs>
  <g>
    <path class="cls-1" d="M0,40.2h94.67v32.79h-54.82v37.69h51.37v32.54h-51.37v71.9H0V40.2Z"/>
    <path class="cls-1" d="M151.83,40.2v174.91h-40.19V40.2h40.19Z"/>
    <path class="cls-1" d="M218.38,143.54v71.57h-39.66V40.2h110.01v48.44c0,24.21-11.91,35.55-22.44,39.72,13.68,6.11,20.14,17.35,20.14,42.51v6.08c0,19.45.76,30.47,1.88,38.16h-38.99c-2.04-6.76-2.74-22.32-2.74-39.42v-6.02c0-20.69-4.17-26.13-19.53-26.13h-8.65ZM218.47,113.45h9.31c15.02,0,20.82-5.43,20.82-22.53,0-14.41-5.08-20.71-18.27-20.71h-11.86v43.24Z"/>
    <path class="cls-1" d="M401.88,140.98h-52.96v41.68h59.95l-4.69,32.45h-94.67V40.2h94.77v32.88h-55.37v35.19h52.96v32.71Z"/>
  </g>
  <polyline class="cls-1" points="288.74 0 275.01 0 275.01 13.73 240.63 13.73 240.63 0 226.91 0 226.91 13.73 192.53 13.73 192.53 0 178.69 0 178.69 27.45 288.74 27.45 288.74 0"/>
</svg>